<mxfile host="app.diagrams.net" modified="2023-01-21T17:08:49.988Z" agent="5.0 (Windows NT 10.0; Win64; x64) AppleWebKit/537.36 (KHTML, like Gecko) Chrome/109.0.0.0 Safari/537.36" etag="BacV14K5iZ32qiqcfqTu" version="20.8.10" type="github">
  <diagram id="C5RBs43oDa-KdzZeNtuy" name="Page-1">
    <mxGraphModel dx="1195" dy="633" grid="1" gridSize="10" guides="1" tooltips="1" connect="1" arrows="1" fold="1" page="1" pageScale="1" pageWidth="827" pageHeight="1169" math="0" shadow="0">
      <root>
        <mxCell id="WIyWlLk6GJQsqaUBKTNV-0" />
        <mxCell id="WIyWlLk6GJQsqaUBKTNV-1" parent="WIyWlLk6GJQsqaUBKTNV-0" />
        <mxCell id="DVPlIItPwsvQvFRhddoW-4" value="" style="edgeStyle=orthogonalEdgeStyle;rounded=0;orthogonalLoop=1;jettySize=auto;html=1;" edge="1" parent="WIyWlLk6GJQsqaUBKTNV-1" source="WIyWlLk6GJQsqaUBKTNV-3" target="WIyWlLk6GJQsqaUBKTNV-11">
          <mxGeometry relative="1" as="geometry" />
        </mxCell>
        <mxCell id="WIyWlLk6GJQsqaUBKTNV-3" value="Ler Artigo" style="rounded=1;whiteSpace=wrap;html=1;fontSize=12;glass=0;strokeWidth=1;shadow=0;" parent="WIyWlLk6GJQsqaUBKTNV-1" vertex="1">
          <mxGeometry x="340" y="40" width="120" height="40" as="geometry" />
        </mxCell>
        <mxCell id="WIyWlLk6GJQsqaUBKTNV-7" value="ResNet50" style="rounded=1;whiteSpace=wrap;html=1;fontSize=12;glass=0;strokeWidth=1;shadow=0;" parent="WIyWlLk6GJQsqaUBKTNV-1" vertex="1">
          <mxGeometry x="260" y="160" width="120" height="40" as="geometry" />
        </mxCell>
        <mxCell id="WIyWlLk6GJQsqaUBKTNV-11" value="AlexNet" style="rounded=1;whiteSpace=wrap;html=1;fontSize=12;glass=0;strokeWidth=1;shadow=0;" parent="WIyWlLk6GJQsqaUBKTNV-1" vertex="1">
          <mxGeometry x="420" y="160" width="120" height="40" as="geometry" />
        </mxCell>
        <mxCell id="WIyWlLk6GJQsqaUBKTNV-12" value="&lt;font style=&quot;font-size: 12px;&quot;&gt;Aplica&lt;span style=&quot;-webkit-tap-highlight-color: rgba(0, 0, 0, 0); box-sizing: border-box; color: rgb(61, 71, 77); font-family: Lora, Avenir, &amp;quot;Avenir Next&amp;quot;, &amp;quot;Segoe UI&amp;quot;, Helvetica, Arial, &amp;quot;sans-serif&amp;quot;; text-align: start; background-color: rgb(255, 255, 255); font-size: 12px;&quot; data-token-id=&quot;1&quot; class=&quot;react-editor-token react-editor-whitespace-token&quot;&gt; &lt;/span&gt;&lt;span style=&quot;-webkit-tap-highlight-color: rgba(0, 0, 0, 0); box-sizing: border-box; color: rgb(61, 71, 77); font-family: Lora, Avenir, &amp;quot;Avenir Next&amp;quot;, &amp;quot;Segoe UI&amp;quot;, Helvetica, Arial, &amp;quot;sans-serif&amp;quot;; text-align: start; background-color: rgb(255, 255, 255); font-size: 12px;&quot; data-token-id=&quot;2&quot; class=&quot;react-editor-token react-editor-text-token&quot;&gt;uma&lt;/span&gt;&lt;span style=&quot;-webkit-tap-highlight-color: rgba(0, 0, 0, 0); box-sizing: border-box; color: rgb(61, 71, 77); font-family: Lora, Avenir, &amp;quot;Avenir Next&amp;quot;, &amp;quot;Segoe UI&amp;quot;, Helvetica, Arial, &amp;quot;sans-serif&amp;quot;; text-align: start; background-color: rgb(255, 255, 255); font-size: 12px;&quot; data-token-id=&quot;3&quot; class=&quot;react-editor-token react-editor-whitespace-token&quot;&gt; &lt;/span&gt;&lt;span style=&quot;-webkit-tap-highlight-color: rgba(0, 0, 0, 0); box-sizing: border-box; color: rgb(61, 71, 77); font-family: Lora, Avenir, &amp;quot;Avenir Next&amp;quot;, &amp;quot;Segoe UI&amp;quot;, Helvetica, Arial, &amp;quot;sans-serif&amp;quot;; text-align: start; background-color: rgb(255, 255, 255); font-size: 12px;&quot; data-token-id=&quot;4&quot; class=&quot;react-editor-token react-editor-text-token&quot;&gt;CNN&lt;/span&gt;&lt;span style=&quot;-webkit-tap-highlight-color: rgba(0, 0, 0, 0); box-sizing: border-box; color: rgb(61, 71, 77); font-family: Lora, Avenir, &amp;quot;Avenir Next&amp;quot;, &amp;quot;Segoe UI&amp;quot;, Helvetica, Arial, &amp;quot;sans-serif&amp;quot;; text-align: start; background-color: rgb(255, 255, 255); font-size: 12px;&quot; data-token-id=&quot;5&quot; class=&quot;react-editor-token react-editor-whitespace-token&quot;&gt; &lt;/span&gt;&lt;span style=&quot;-webkit-tap-highlight-color: rgba(0, 0, 0, 0); box-sizing: border-box; color: rgb(61, 71, 77); font-family: Lora, Avenir, &amp;quot;Avenir Next&amp;quot;, &amp;quot;Segoe UI&amp;quot;, Helvetica, Arial, &amp;quot;sans-serif&amp;quot;; text-align: start; background-color: rgb(255, 255, 255); font-size: 12px;&quot; data-token-id=&quot;6&quot; class=&quot;react-editor-token react-editor-text-token&quot;&gt;para&lt;/span&gt;&lt;span style=&quot;-webkit-tap-highlight-color: rgba(0, 0, 0, 0); box-sizing: border-box; color: rgb(61, 71, 77); font-family: Lora, Avenir, &amp;quot;Avenir Next&amp;quot;, &amp;quot;Segoe UI&amp;quot;, Helvetica, Arial, &amp;quot;sans-serif&amp;quot;; text-align: start; background-color: rgb(255, 255, 255); font-size: 12px;&quot; data-token-id=&quot;7&quot; class=&quot;react-editor-token react-editor-whitespace-token&quot;&gt; &lt;/span&gt;&lt;span style=&quot;-webkit-tap-highlight-color: rgba(0, 0, 0, 0); box-sizing: border-box; color: rgb(61, 71, 77); font-family: Lora, Avenir, &amp;quot;Avenir Next&amp;quot;, &amp;quot;Segoe UI&amp;quot;, Helvetica, Arial, &amp;quot;sans-serif&amp;quot;; text-align: start; background-color: rgb(255, 255, 255); font-size: 12px;&quot; data-token-id=&quot;8&quot; class=&quot;react-editor-token react-editor-text-token&quot;&gt;cada&lt;br style=&quot;font-size: 12px;&quot;&gt;olho&lt;/span&gt;&lt;span style=&quot;-webkit-tap-highlight-color: rgba(0, 0, 0, 0); box-sizing: border-box; color: rgb(61, 71, 77); font-family: Lora, Avenir, &amp;quot;Avenir Next&amp;quot;, &amp;quot;Segoe UI&amp;quot;, Helvetica, Arial, &amp;quot;sans-serif&amp;quot;; text-align: start; background-color: rgb(255, 255, 255); font-size: 12px;&quot; data-token-id=&quot;9&quot; class=&quot;react-editor-token react-editor-whitespace-token&quot;&gt; &lt;/span&gt;&lt;span style=&quot;-webkit-tap-highlight-color: rgba(0, 0, 0, 0); box-sizing: border-box; color: rgb(61, 71, 77); font-family: Lora, Avenir, &amp;quot;Avenir Next&amp;quot;, &amp;quot;Segoe UI&amp;quot;, Helvetica, Arial, &amp;quot;sans-serif&amp;quot;; text-align: start; background-color: rgb(255, 255, 255); font-size: 12px;&quot; data-token-id=&quot;10&quot; class=&quot;react-editor-token react-editor-text-token&quot;&gt;em&lt;/span&gt;&lt;span style=&quot;-webkit-tap-highlight-color: rgba(0, 0, 0, 0); box-sizing: border-box; color: rgb(61, 71, 77); font-family: Lora, Avenir, &amp;quot;Avenir Next&amp;quot;, &amp;quot;Segoe UI&amp;quot;, Helvetica, Arial, &amp;quot;sans-serif&amp;quot;; text-align: start; background-color: rgb(255, 255, 255); font-size: 12px;&quot; data-token-id=&quot;11&quot; class=&quot;react-editor-token react-editor-whitespace-token&quot;&gt; &lt;/span&gt;&lt;span style=&quot;-webkit-tap-highlight-color: rgba(0, 0, 0, 0); box-sizing: border-box; color: rgb(61, 71, 77); font-family: Lora, Avenir, &amp;quot;Avenir Next&amp;quot;, &amp;quot;Segoe UI&amp;quot;, Helvetica, Arial, &amp;quot;sans-serif&amp;quot;; text-align: start; background-color: rgb(255, 255, 255); font-size: 12px;&quot; data-token-id=&quot;12&quot; class=&quot;react-editor-token react-editor-text-token&quot;&gt;iluminação&lt;br style=&quot;font-size: 12px;&quot;&gt;diferente&lt;/span&gt;&lt;/font&gt;" style="rounded=1;whiteSpace=wrap;html=1;fontSize=12;glass=0;strokeWidth=1;shadow=0;" parent="WIyWlLk6GJQsqaUBKTNV-1" vertex="1">
          <mxGeometry x="320" y="240" width="160" height="80" as="geometry" />
        </mxCell>
        <mxCell id="DVPlIItPwsvQvFRhddoW-7" value="" style="edgeStyle=segmentEdgeStyle;endArrow=classic;html=1;curved=0;rounded=0;endSize=8;startSize=8;" edge="1" parent="WIyWlLk6GJQsqaUBKTNV-1">
          <mxGeometry width="50" height="50" relative="1" as="geometry">
            <mxPoint x="420" y="120" as="sourcePoint" />
            <mxPoint x="320" y="160" as="targetPoint" />
            <Array as="points">
              <mxPoint x="320" y="120" />
            </Array>
          </mxGeometry>
        </mxCell>
        <mxCell id="DVPlIItPwsvQvFRhddoW-9" value="" style="endArrow=classic;html=1;rounded=0;fontSize=12;exitX=0.5;exitY=1;exitDx=0;exitDy=0;entryX=0.25;entryY=0;entryDx=0;entryDy=0;" edge="1" parent="WIyWlLk6GJQsqaUBKTNV-1" source="WIyWlLk6GJQsqaUBKTNV-7" target="WIyWlLk6GJQsqaUBKTNV-12">
          <mxGeometry width="50" height="50" relative="1" as="geometry">
            <mxPoint x="340" y="300" as="sourcePoint" />
            <mxPoint x="390" y="250" as="targetPoint" />
          </mxGeometry>
        </mxCell>
        <mxCell id="DVPlIItPwsvQvFRhddoW-11" value="" style="endArrow=classic;html=1;rounded=0;fontSize=12;exitX=0.5;exitY=1;exitDx=0;exitDy=0;entryX=0.75;entryY=0;entryDx=0;entryDy=0;" edge="1" parent="WIyWlLk6GJQsqaUBKTNV-1" source="WIyWlLk6GJQsqaUBKTNV-11" target="WIyWlLk6GJQsqaUBKTNV-12">
          <mxGeometry width="50" height="50" relative="1" as="geometry">
            <mxPoint x="330" y="210" as="sourcePoint" />
            <mxPoint x="410" y="270" as="targetPoint" />
          </mxGeometry>
        </mxCell>
        <mxCell id="DVPlIItPwsvQvFRhddoW-12" value="Média de erro e acerto" style="rounded=1;whiteSpace=wrap;html=1;fontSize=12;glass=0;strokeWidth=1;shadow=0;" vertex="1" parent="WIyWlLk6GJQsqaUBKTNV-1">
          <mxGeometry x="340" y="350" width="120" height="40" as="geometry" />
        </mxCell>
        <mxCell id="DVPlIItPwsvQvFRhddoW-13" value="Gerar matriz de confusão" style="rounded=1;whiteSpace=wrap;html=1;fontSize=12;glass=0;strokeWidth=1;shadow=0;" vertex="1" parent="WIyWlLk6GJQsqaUBKTNV-1">
          <mxGeometry x="340" y="420" width="120" height="40" as="geometry" />
        </mxCell>
        <mxCell id="DVPlIItPwsvQvFRhddoW-14" value="" style="endArrow=classic;html=1;rounded=0;fontSize=12;exitX=0.5;exitY=1;exitDx=0;exitDy=0;entryX=0.5;entryY=0;entryDx=0;entryDy=0;" edge="1" parent="WIyWlLk6GJQsqaUBKTNV-1" source="WIyWlLk6GJQsqaUBKTNV-12" target="DVPlIItPwsvQvFRhddoW-12">
          <mxGeometry width="50" height="50" relative="1" as="geometry">
            <mxPoint x="340" y="320" as="sourcePoint" />
            <mxPoint x="390" y="270" as="targetPoint" />
          </mxGeometry>
        </mxCell>
        <mxCell id="DVPlIItPwsvQvFRhddoW-15" value="" style="endArrow=classic;html=1;rounded=0;fontSize=12;exitX=0.5;exitY=1;exitDx=0;exitDy=0;entryX=0.5;entryY=0;entryDx=0;entryDy=0;" edge="1" parent="WIyWlLk6GJQsqaUBKTNV-1">
          <mxGeometry width="50" height="50" relative="1" as="geometry">
            <mxPoint x="399.66" y="390" as="sourcePoint" />
            <mxPoint x="399.66" y="420" as="targetPoint" />
          </mxGeometry>
        </mxCell>
        <mxCell id="DVPlIItPwsvQvFRhddoW-16" value="Avaliar o resultado" style="rounded=1;whiteSpace=wrap;html=1;fontSize=12;glass=0;strokeWidth=1;shadow=0;" vertex="1" parent="WIyWlLk6GJQsqaUBKTNV-1">
          <mxGeometry x="340" y="490" width="120" height="40" as="geometry" />
        </mxCell>
        <mxCell id="DVPlIItPwsvQvFRhddoW-17" value="Gerar tabela" style="rounded=1;whiteSpace=wrap;html=1;fontSize=12;glass=0;strokeWidth=1;shadow=0;labelBackgroundColor=none;" vertex="1" parent="WIyWlLk6GJQsqaUBKTNV-1">
          <mxGeometry x="340" y="560" width="120" height="40" as="geometry" />
        </mxCell>
        <mxCell id="DVPlIItPwsvQvFRhddoW-18" value="" style="endArrow=classic;html=1;rounded=0;fontSize=12;exitX=0.5;exitY=1;exitDx=0;exitDy=0;entryX=0.5;entryY=0;entryDx=0;entryDy=0;" edge="1" parent="WIyWlLk6GJQsqaUBKTNV-1" source="DVPlIItPwsvQvFRhddoW-13" target="DVPlIItPwsvQvFRhddoW-16">
          <mxGeometry width="50" height="50" relative="1" as="geometry">
            <mxPoint x="340" y="490" as="sourcePoint" />
            <mxPoint x="390" y="440" as="targetPoint" />
          </mxGeometry>
        </mxCell>
        <mxCell id="DVPlIItPwsvQvFRhddoW-19" value="" style="endArrow=classic;html=1;rounded=0;fontSize=12;exitX=0.5;exitY=1;exitDx=0;exitDy=0;entryX=0.5;entryY=0;entryDx=0;entryDy=0;" edge="1" parent="WIyWlLk6GJQsqaUBKTNV-1">
          <mxGeometry width="50" height="50" relative="1" as="geometry">
            <mxPoint x="399.66" y="530" as="sourcePoint" />
            <mxPoint x="399.66" y="560" as="targetPoint" />
            <Array as="points">
              <mxPoint x="399.66" y="530" />
            </Array>
          </mxGeometry>
        </mxCell>
      </root>
    </mxGraphModel>
  </diagram>
</mxfile>
